<svg xmlns="http://www.w3.org/2000/svg" viewBox="0 0 500 500"><g id="freepik--background-complete--inject-200"><rect y="382.4" width="500" height="0.25" style="fill:#ebebeb"></rect><rect x="416.78" y="398.49" width="33.12" height="0.25" style="fill:#ebebeb"></rect><rect x="322.53" y="401.21" width="8.69" height="0.25" style="fill:#ebebeb"></rect><rect x="396.59" y="389.21" width="19.19" height="0.25" style="fill:#ebebeb"></rect><rect x="52.46" y="390.89" width="43.19" height="0.25" style="fill:#ebebeb"></rect><rect x="104.56" y="390.89" width="6.33" height="0.25" style="fill:#ebebeb"></rect><rect x="131.47" y="395.11" width="93.68" height="0.25" style="fill:#ebebeb"></rect><path d="M237,337.8H43.91a5.71,5.71,0,0,1-5.7-5.71V60.66A5.71,5.71,0,0,1,43.91,55H237a5.71,5.71,0,0,1,5.71,5.71V332.09A5.71,5.71,0,0,1,237,337.8ZM43.91,55.2a5.46,5.46,0,0,0-5.45,5.46V332.09a5.46,5.46,0,0,0,5.45,5.46H237a5.47,5.47,0,0,0,5.46-5.46V60.66A5.47,5.47,0,0,0,237,55.2Z" style="fill:#ebebeb"></path><path d="M453.31,337.8H260.21a5.72,5.72,0,0,1-5.71-5.71V60.66A5.72,5.72,0,0,1,260.21,55h193.1A5.71,5.71,0,0,1,459,60.66V332.09A5.71,5.71,0,0,1,453.31,337.8ZM260.21,55.2a5.47,5.47,0,0,0-5.46,5.46V332.09a5.47,5.47,0,0,0,5.46,5.46h193.1a5.47,5.47,0,0,0,5.46-5.46V60.66a5.47,5.47,0,0,0-5.46-5.46Z" style="fill:#ebebeb"></path><rect x="398.62" y="154.17" width="25.46" height="10.83" style="fill:#ebebeb"></rect><rect x="367.81" y="154.17" width="25.46" height="10.83" style="fill:#ebebeb"></rect><rect x="398.62" y="184.99" width="25.46" height="10.83" style="fill:#ebebeb"></rect><rect x="414.02" y="169.25" width="25.46" height="10.83" style="fill:#ebebeb"></rect><rect x="383.21" y="169.25" width="25.46" height="10.83" style="fill:#ebebeb"></rect><rect x="414.02" y="200.07" width="25.46" height="10.83" style="fill:#ebebeb"></rect><rect x="383.21" y="200.07" width="25.46" height="10.83" style="fill:#ebebeb"></rect><rect x="405.05" y="270.53" width="25.46" height="10.83" style="fill:#ebebeb"></rect><rect x="374.24" y="270.53" width="25.46" height="10.83" style="fill:#ebebeb"></rect><rect x="333.66" y="233.3" width="25.46" height="10.83" style="fill:#ebebeb"></rect><rect x="302.85" y="233.3" width="25.46" height="10.83" style="fill:#ebebeb"></rect><rect x="272.04" y="233.3" width="25.46" height="10.83" style="fill:#ebebeb"></rect><rect x="389.65" y="285.61" width="25.46" height="10.83" style="fill:#ebebeb"></rect><rect x="358.84" y="285.61" width="25.46" height="10.83" style="fill:#ebebeb"></rect><rect x="318.26" y="248.38" width="25.46" height="10.83" style="fill:#ebebeb"></rect><rect x="287.45" y="248.38" width="25.46" height="10.83" style="fill:#ebebeb"></rect><rect x="177.05" y="86.74" width="25.46" height="10.83" style="fill:#ebebeb"></rect><rect x="146.25" y="86.74" width="25.46" height="10.83" style="fill:#ebebeb"></rect><rect x="192.46" y="101.82" width="25.46" height="10.83" style="fill:#ebebeb"></rect><rect x="161.65" y="101.82" width="25.46" height="10.83" style="fill:#ebebeb"></rect><rect x="100.04" y="101.82" width="25.46" height="10.83" style="fill:#ebebeb"></rect><rect x="69.23" y="101.82" width="25.46" height="10.83" style="fill:#ebebeb"></rect><rect x="177.05" y="116.9" width="25.46" height="10.83" style="fill:#ebebeb"></rect><rect x="146.25" y="116.9" width="25.46" height="10.83" style="fill:#ebebeb"></rect><rect x="84.63" y="116.9" width="25.46" height="10.83" style="fill:#ebebeb"></rect><rect x="374.24" y="77.51" width="25.46" height="10.83" style="fill:#ebebeb"></rect><rect x="389.65" y="92.59" width="25.46" height="10.83" style="fill:#ebebeb"></rect><rect x="307.34" y="87.39" width="25.46" height="10.83" style="fill:#ebebeb"></rect><rect x="276.54" y="87.39" width="25.46" height="10.83" style="fill:#ebebeb"></rect><rect x="322.75" y="102.46" width="25.46" height="10.83" style="fill:#ebebeb"></rect><rect x="291.94" y="102.46" width="25.46" height="10.83" style="fill:#ebebeb"></rect><rect x="261.13" y="102.46" width="25.46" height="10.83" style="fill:#ebebeb"></rect><rect x="276.38" y="119.67" width="25.46" height="10.83" style="fill:#ebebeb"></rect><rect x="245.57" y="119.67" width="25.46" height="10.83" style="fill:#ebebeb"></rect><rect x="214.76" y="119.67" width="25.46" height="10.83" style="fill:#ebebeb"></rect><rect x="260.98" y="134.75" width="25.46" height="10.83" style="fill:#ebebeb"></rect><rect x="230.17" y="134.75" width="25.46" height="10.83" style="fill:#ebebeb"></rect><rect x="127.1" y="222.57" width="25.46" height="10.83" style="fill:#ebebeb"></rect><rect x="96.29" y="222.57" width="25.46" height="10.83" style="fill:#ebebeb"></rect><rect x="229.74" y="184.99" width="25.46" height="10.83" style="fill:#ebebeb"></rect><rect x="142.5" y="237.65" width="25.46" height="10.83" style="fill:#ebebeb"></rect><rect x="111.7" y="237.65" width="25.46" height="10.83" style="fill:#ebebeb"></rect><rect x="245.14" y="200.07" width="25.46" height="10.83" style="fill:#ebebeb"></rect><rect x="214.34" y="200.07" width="25.46" height="10.83" style="fill:#ebebeb"></rect><rect x="127.1" y="252.73" width="25.46" height="10.83" style="fill:#ebebeb"></rect><rect x="96.29" y="252.73" width="25.46" height="10.83" style="fill:#ebebeb"></rect><rect x="142.5" y="267.81" width="25.46" height="10.83" style="fill:#ebebeb"></rect><rect x="111.7" y="267.81" width="25.46" height="10.83" style="fill:#ebebeb"></rect><rect x="164.02" y="299.71" width="25.46" height="10.83" style="fill:#ebebeb"></rect><rect x="133.21" y="299.71" width="25.46" height="10.83" style="fill:#ebebeb"></rect><rect x="102.41" y="323.23" width="25.46" height="10.83" style="fill:#ebebeb"></rect><rect x="71.6" y="323.23" width="25.46" height="10.83" style="fill:#ebebeb"></rect><rect x="179.42" y="338.31" width="25.46" height="10.83" style="fill:#ebebeb"></rect><rect x="148.62" y="314.79" width="25.46" height="10.83" style="fill:#ebebeb"></rect><rect x="87" y="338.31" width="25.46" height="10.83" style="fill:#ebebeb"></rect><rect x="194.83" y="353.39" width="25.46" height="10.83" style="fill:#ebebeb"></rect><rect x="164.02" y="353.39" width="25.46" height="10.83" style="fill:#ebebeb"></rect><rect x="133.21" y="353.39" width="25.46" height="10.83" style="fill:#ebebeb"></rect><rect x="179.42" y="368.47" width="25.46" height="10.83" style="fill:#ebebeb"></rect><rect x="148.62" y="368.47" width="25.46" height="10.83" style="fill:#ebebeb"></rect><rect x="117.81" y="368.47" width="25.46" height="10.83" style="fill:#ebebeb"></rect><rect x="338.19" y="322.53" width="25.46" height="10.83" style="fill:#ebebeb"></rect><rect x="268.25" y="290" width="25.46" height="10.83" style="fill:#ebebeb"></rect><rect x="237.44" y="290" width="25.46" height="10.83" style="fill:#ebebeb"></rect><rect x="353.59" y="337.61" width="25.46" height="10.83" style="fill:#ebebeb"></rect><rect x="322.78" y="337.61" width="25.46" height="10.83" style="fill:#ebebeb"></rect><rect x="252.85" y="305.08" width="25.46" height="10.83" style="fill:#ebebeb"></rect><rect x="222.04" y="305.08" width="25.46" height="10.83" style="fill:#ebebeb"></rect><rect x="369" y="352.69" width="25.46" height="10.83" style="fill:#ebebeb"></rect><rect x="338.19" y="352.69" width="25.46" height="10.83" style="fill:#ebebeb"></rect><rect x="307.38" y="352.69" width="25.46" height="10.83" style="fill:#ebebeb"></rect><rect x="276.57" y="352.69" width="25.46" height="10.83" style="fill:#ebebeb"></rect><rect x="353.59" y="367.77" width="25.46" height="10.83" style="fill:#ebebeb"></rect><rect x="322.78" y="367.77" width="25.46" height="10.83" style="fill:#ebebeb"></rect><rect x="291.98" y="367.77" width="25.46" height="10.83" style="fill:#ebebeb"></rect><rect x="261.17" y="367.77" width="25.46" height="10.83" style="fill:#ebebeb"></rect><rect x="208.73" y="181.72" width="268.95" height="132.9" transform="translate(591.38 -95.04) rotate(90)" style="fill:#e0e0e0"></rect><rect x="281.67" y="118.61" width="123.09" height="259.13" style="fill:#ebebeb"></rect><rect x="306.82" y="141.19" width="72.79" height="38.97" style="fill:#e0e0e0"></rect><rect x="311.76" y="142.57" width="5.03" height="36.22" style="fill:#ebebeb"></rect><rect x="322.78" y="142.57" width="5.03" height="36.22" style="fill:#ebebeb"></rect><rect x="333.8" y="142.57" width="5.03" height="36.22" style="fill:#ebebeb"></rect><rect x="344.81" y="142.57" width="5.03" height="36.22" style="fill:#ebebeb"></rect><rect x="355.83" y="142.57" width="5.03" height="36.22" style="fill:#ebebeb"></rect><rect x="366.84" y="142.57" width="5.03" height="36.22" style="fill:#ebebeb"></rect><path d="M399.12,238a4.74,4.74,0,1,1-4.73-4.74A4.74,4.74,0,0,1,399.12,238Z" style="fill:#e0e0e0"></path></g><g id="freepik--Shadow--inject-200"><ellipse id="freepik--path--inject-200" cx="250" cy="416.24" rx="193.89" ry="11.32" style="fill:#f5f5f5"></ellipse></g><g id="freepik--Boxes--inject-200"><rect x="51.4" y="384.42" width="77.26" height="32.56" style="fill:#FFFFFF"></rect><rect x="51.4" y="384.42" width="56.42" height="32.56" transform="translate(159.21 801.4) rotate(180)" style="fill:#fff;opacity:0.2"></rect><rect x="72.07" y="384.42" width="7.71" height="4.88" style="fill:#263238"></rect><rect x="72.07" y="413.3" width="7.71" height="3.68" style="fill:#263238"></rect><rect x="63.16" y="351.91" width="57.26" height="32.56" style="fill:#FFFFFF"></rect><rect x="63.16" y="351.91" width="57.26" height="32.56" style="fill:#fff;opacity:0.2"></rect><rect x="63.16" y="351.91" width="36.42" height="32.56" transform="translate(162.73 736.38) rotate(180)" style="fill:#fff;opacity:0.2"></rect><rect x="108.1" y="351.91" width="3.9" height="4.16" style="opacity:0.2;isolation:isolate"></rect><rect x="108.1" y="381.65" width="3.9" height="2.83" style="opacity:0.2;isolation:isolate"></rect><rect x="120.98" y="382.89" width="69.78" height="34.09" transform="translate(311.73 799.87) rotate(180)" style="fill:#263238"></rect><rect x="120.98" y="382.89" width="69.78" height="34.09" transform="translate(311.73 799.87) rotate(180)" style="fill:#fff;opacity:0.6000000000000001"></rect><rect x="120.98" y="382.89" width="49.44" height="34.09" transform="translate(291.39 799.87) rotate(180)" style="fill:#fff;opacity:0.30000000000000004"></rect><polygon points="170.41 382.89 175.52 390.96 195.3 390.96 190.75 382.89 170.41 382.89" style="fill:#263238"></polygon><polygon points="170.41 382.89 165.97 390.96 116.59 390.96 120.98 382.89 170.41 382.89" style="fill:#263238"></polygon><polygon points="170.41 382.89 175.52 390.96 195.3 390.96 190.75 382.89 170.41 382.89" style="fill:#fff;opacity:0.4"></polygon><polygon points="170.41 382.89 165.97 390.96 116.59 390.96 120.98 382.89 170.41 382.89" style="fill:#fff;opacity:0.6000000000000001"></polygon></g><g id="freepik--Pictures--inject-200"><rect x="78.16" y="136.73" width="22.74" height="30.43" style="fill:#263238"></rect><rect x="120.43" y="131.92" width="32.99" height="25.14" style="fill:#263238"></rect><rect x="99.29" y="208.51" width="29.79" height="21.61" style="fill:#263238"></rect><rect x="158.55" y="181.34" width="32.21" height="28.79" style="fill:#263238"></rect><rect x="147.06" y="231.22" width="15.65" height="13.12" style="fill:#263238"></rect><rect x="62.78" y="191.2" width="23.06" height="17.31" style="fill:#263238"></rect><rect x="165.59" y="144.49" width="16.85" height="14.7" style="fill:#263238"></rect><g style="opacity:0.7000000000000001;isolation:isolate"><rect x="78.16" y="136.73" width="22.74" height="30.43" style="fill:#fff"></rect><rect x="120.43" y="131.92" width="32.99" height="25.14" style="fill:#fff"></rect><rect x="99.29" y="208.51" width="29.79" height="21.61" style="fill:#fff"></rect><rect x="158.55" y="181.34" width="32.21" height="28.79" style="fill:#fff"></rect><rect x="147.06" y="231.22" width="15.65" height="13.12" style="fill:#fff"></rect><rect x="62.78" y="191.2" width="23.06" height="17.31" style="fill:#fff"></rect><rect x="165.59" y="144.49" width="16.85" height="14.7" style="fill:#fff"></rect></g><rect x="76.74" y="143" width="25.57" height="17.88" transform="translate(241.47 62.41) rotate(90)" style="fill:#fff;opacity:0.4"></rect><rect x="126.79" y="130.43" width="20.28" height="28.13" transform="translate(281.42 7.57) rotate(90)" style="fill:#fff;opacity:0.4"></rect><rect x="105.81" y="206.85" width="16.75" height="24.93" transform="translate(333.5 105.12) rotate(90)" style="fill:#fff;opacity:0.4"></rect><rect x="161.47" y="180.85" width="26.36" height="29.78" transform="translate(370.38 21.09) rotate(90)" style="fill:#fff;opacity:0.4"></rect><rect x="149.54" y="231.17" width="10.69" height="13.22" transform="translate(392.67 82.9) rotate(90)" style="fill:#fff;opacity:0.4"></rect><rect x="66.87" y="189.54" width="14.88" height="20.63" transform="translate(274.17 125.54) rotate(90)" style="fill:#fff;opacity:0.4"></rect><rect x="167.88" y="144.63" width="12.27" height="14.42" transform="translate(325.86 -22.17) rotate(90)" style="fill:#fff;opacity:0.4"></rect><rect x="109.06" y="168.03" width="40.55" height="31.82" style="fill:#263238"></rect><rect x="109.06" y="168.03" width="40.55" height="31.82" style="fill:#fff;opacity:0.7000000000000001"></rect><path d="M129.08,185a.24.24,0,0,1-.14-.05L86,155.58a.25.25,0,0,1-.07-.35.25.25,0,0,1,.35-.06l42.84,29.27,45.42-32.8a.24.24,0,0,1,.35.06.24.24,0,0,1,0,.34L129.23,185A.3.3,0,0,1,129.08,185Z" style="fill:#FFFFFF"></path><path d="M114.19,221.47h-.1a.25.25,0,0,1-.13-.33l14.7-36-55.72,15a.25.25,0,0,1-.25-.41l58.73-60.21a.25.25,0,1,1,.36.35L73.69,199.38,129,184.5a.26.26,0,0,1,.25.08.25.25,0,0,1,0,.26l-14.89,36.48A.24.24,0,0,1,114.19,221.47Z" style="fill:#FFFFFF"></path><path d="M178.56,199a.26.26,0,0,1-.25-.25l-.13-43-39.82-10.41-9,39.47a.25.25,0,0,1-.3.19.25.25,0,0,1-.18-.3l9.1-39.72a.23.23,0,0,1,.11-.16.26.26,0,0,1,.19,0l40.25,10.52a.26.26,0,0,1,.19.24l.13,43.16a.24.24,0,0,1-.24.25Z" style="fill:#FFFFFF"></path><path d="M167.67,203.5a.23.23,0,0,1-.15-.05L92.22,145.3a.24.24,0,0,1,0-.35.25.25,0,0,1,.35,0l75.3,58.16a.24.24,0,0,1,0,.35A.25.25,0,0,1,167.67,203.5Z" style="fill:#FFFFFF"></path><path d="M137.69,197.53h0a.25.25,0,0,1-.21-.28l8.23-56.93-28.46,38a.25.25,0,0,1-.35.06.25.25,0,0,1,0-.35l29.05-38.82a.25.25,0,0,1,.29-.08.27.27,0,0,1,.16.27l-8.37,57.9A.26.26,0,0,1,137.69,197.53Z" style="fill:#FFFFFF"></path><circle cx="92.37" cy="145.1" r="0.61" style="fill:#263238"></circle><circle cx="86.1" cy="155.37" r="0.74" style="fill:#263238"></circle><path d="M74,200.09a1.39,1.39,0,1,1-1.39-1.39A1.38,1.38,0,0,1,74,200.09Z" style="fill:#263238"></path><path d="M131.11,184.37a1.5,1.5,0,1,1-1.49-1.5A1.49,1.49,0,0,1,131.11,184.37Z" style="fill:#263238"></path><path d="M141.21,181.75a1.38,1.38,0,1,1-1.38-1.38A1.38,1.38,0,0,1,141.21,181.75Z" style="fill:#263238"></path><path d="M117.79,178.19a.78.78,0,1,1-.78-.79A.78.78,0,0,1,117.79,178.19Z" style="fill:#263238"></path><path d="M138.45,197.28a.76.76,0,1,1-.76-.76A.76.76,0,0,1,138.45,197.28Z" style="fill:#263238"></path><circle cx="114.01" cy="221.18" r="0.9" style="fill:#263238"></circle><path d="M179.94,198.56a1.29,1.29,0,1,1-1.29-1.28A1.29,1.29,0,0,1,179.94,198.56Z" style="fill:#263238"></path><circle cx="167.67" cy="203.25" r="0.87" style="fill:#263238"></circle><path d="M175.68,151.45a.83.83,0,1,1-.83-.83A.83.83,0,0,1,175.68,151.45Z" style="fill:#263238"></path><circle cx="178.43" cy="155.55" r="0.57" style="fill:#263238"></circle><path d="M139.43,145a1.25,1.25,0,1,1-1.25-1.25A1.25,1.25,0,0,1,139.43,145Z" style="fill:#263238"></path><path d="M132.09,139.64a.49.49,0,0,1-1,0,.49.49,0,0,1,1,0Z" style="fill:#263238"></path><circle cx="146.06" cy="139.37" r="1" style="fill:#263238"></circle><path d="M126.52,189.3a16.71,16.71,0,0,1-2-.12c-2.2-.25-3.54-1-4-2.11s0-2.51,1.25-4c2.19-2.62,6.55-5,9.76-4.36a.25.25,0,1,1-.1.49c-2.93-.61-7.17,1.67-9.28,4.19-1.12,1.33-1.53,2.57-1.17,3.49s1.62,1.57,3.59,1.8c5.26.6,8.33-1.29,8.65-3.46.25-1.74-1.31-3.17-4-3.64a.25.25,0,0,1,.09-.5c3.37.61,4.63,2.55,4.39,4.21C133.46,187.42,130.9,189.3,126.52,189.3Z" style="fill:#263238"></path><path d="M74,203.69a6.9,6.9,0,0,1-1.51-.19c-3.14-.73-4-2.76-3.86-4.27.23-1.89,2.1-3.79,5.3-3.75a.26.26,0,0,1,.25.26A.24.24,0,0,1,74,196h-.1c-2.82,0-4.5,1.66-4.7,3.32-.17,1.36.66,3,3.47,3.71,1.54.36,2.69.17,3.33-.53a2.69,2.69,0,0,0,.33-2.67,3.32,3.32,0,0,0-2.38-2.29.25.25,0,0,1-.2-.29A.25.25,0,0,1,74,197a3.77,3.77,0,0,1,2.77,2.62,3.14,3.14,0,0,1-.44,3.16A2.91,2.91,0,0,1,74,203.69Z" style="fill:#263238"></path><path d="M130.37,144c-1.76,0-2.51-.69-2.82-1.27a3,3,0,0,1,.43-3.07,5.92,5.92,0,0,1,5.43-2.56.23.23,0,0,1,.22.27.26.26,0,0,1-.27.23,5.4,5.4,0,0,0-5,2.33,2.56,2.56,0,0,0-.41,2.56,2.51,2.51,0,0,0,2.38,1c1.58,0,2.61-.37,3-1.12.69-1.16-.24-2.89-.25-2.91a.24.24,0,0,1,.1-.34.24.24,0,0,1,.33.1c.05.08,1.08,2,.25,3.4C133.31,143.56,132.15,144,130.37,144Z" style="fill:#263238"></path><path d="M176.44,204.64a2.57,2.57,0,0,1-1.66-.59c-2.14-1.74-2.23-6.9-.89-10.18.83-2,2.08-3.05,3.5-2.92a.24.24,0,0,1,.22.27.25.25,0,0,1-.27.23c-1.61-.15-2.56,1.57-3,2.61-1.25,3.06-1.2,8,.74,9.6.94.76,2.21.62,3.76-.43,4.18-2.82,3.56-5.27,2.82-6.48-1-1.65-3.29-2.64-4.18-2.14a.26.26,0,0,1-.34-.1.25.25,0,0,1,.09-.34c1.12-.62,3.67.39,4.85,2.32.68,1.1,1.74,4-3,7.16A4.88,4.88,0,0,1,176.44,204.64Z" style="fill:#263238"></path></g><g id="freepik--character-2--inject-200"><g id="freepik--group--inject-200"><path d="M344.46,296s8,12.58,10.8,15.12S383,304.52,383,304.52l1.59,5.5s-25.17,12.9-30,11.28-16.71-18.18-16.71-18.18Z" style="fill:#b97964"></path><path d="M333,283c8.31-2.68,17.39,16.91,17.39,16.91L339.72,309S322.4,286.37,333,283Z" style="fill:#FFFFFF"></path><path d="M350.36,299.88,339.72,309s-1.94-2.53-4.13-6a49.16,49.16,0,0,1-5.33-10.9c-1.28-4.21-1.07-7.88,2.71-9.09C341.28,280.29,350.36,299.88,350.36,299.88Z" style="fill:#fff;opacity:0.4;isolation:isolate"></path><path d="M335.59,303a49.16,49.16,0,0,1-5.33-10.9,17.72,17.72,0,0,1,3.95-1.52S337.35,297.29,335.59,303Z" style="opacity:0.2;isolation:isolate"></path><path d="M381.37,306.76a5.56,5.56,0,0,1,.46-2.34c.53-1.11,6.81-5.39,7.85-5s4.92,8.4,4.39,9.5-7.3,3.21-10.23,3.19S381.37,306.76,381.37,306.76Z" style="fill:#b97964"></path><polygon points="339.28 410.39 347.16 412.05 355.58 398.2 347.7 396.54 339.28 410.39" style="fill:#b97964"></polygon><path d="M348.75,408.71h-8.82a.63.63,0,0,0-.62.5l-1.43,6.47a1.06,1.06,0,0,0,.82,1.27l.24,0c2.85-.05,4.93-.22,8.52-.22,2.2,0,8.86.23,11.91.23s3.45-3,2.2-3.29c-5.6-1.22-9.81-2.91-11.6-4.52A1.77,1.77,0,0,0,348.75,408.71Z" style="fill:#263238"></path><path d="M349.25,409.72a.18.18,0,0,1-.13-.15.15.15,0,0,1,.08-.16c.26-.17,2.61-1.61,3.41-1.2a.55.55,0,0,1,.3.48,1.06,1.06,0,0,1-.36.93,2.18,2.18,0,0,1-1.4.37A8.71,8.71,0,0,1,349.25,409.72Zm.5-.24a3.49,3.49,0,0,0,2.58-.13.7.7,0,0,0,.23-.62c0-.14-.06-.2-.11-.2a.33.33,0,0,0-.22,0A7,7,0,0,0,349.75,409.48Z" style="fill:#FFFFFF"></path><path d="M349.2,409.76a.21.21,0,0,1-.08-.16c0-.1.18-2.19,1-2.87a.94.94,0,0,1,.73-.23.58.58,0,0,1,.56.46c.15.76-1.31,2.36-2.05,2.77h-.09A.14.14,0,0,1,349.2,409.76Zm1.17-2.83a3.93,3.93,0,0,0-.86,2.27c.74-.56,1.67-1.77,1.58-2.24,0,0,0-.18-.25-.18h-.09A.54.54,0,0,0,350.37,406.93Z" style="fill:#FFFFFF"></path><polygon points="347.7 396.54 355.58 398.2 351.23 405.34 343.35 403.68 347.7 396.54" style="opacity:0.2;isolation:isolate"></polygon><path d="M313.23,363.49c.43,0,5.22-.05,5.66-.09a128.17,128.17,0,0,0,25.46-5.23c7.43-2.23,12.57-4.31,12.57-4.31,1.69,9.85-14.29,47.62-14.29,47.62l13.06.82s36.49-53.83,20.94-70.61c-11.61-12.53-43.11,1.07-43.11,1.07l-8.23-17.38-34.89,2S282.87,365.1,313.23,363.49Z" style="fill:#263238"></path><polygon points="355.07 403.84 342.06 401.76 343.31 398.22 357.46 401.17 355.07 403.84" style="fill:#FFFFFF"></polygon><path d="M317.59,363.49l1.3-.09a128.17,128.17,0,0,0,25.46-5.23c-12.63-2.31-24.69-11.39-24.69-11.39Z" style="opacity:0.2;isolation:isolate"></path><polygon points="250.91 395.62 250.23 402.85 266.92 405.02 267.6 397.79 250.91 395.62" style="fill:#b97964"></polygon><path d="M251,403.93l.83-8.78a.66.66,0,0,0-.44-.67l-6.31-2a1.08,1.08,0,0,0-1.34.71.85.85,0,0,0,0,.23c-.22,2.85-.24,4.93-.58,8.5-.21,2.2-1.06,8.81-1.35,11.84s2.68,3.72,3.07,2.5c1.74-5.46,3.82-9.49,5.59-11.13A1.75,1.75,0,0,0,251,403.93Z" style="fill:#263238"></path><path d="M249.92,404.33a.18.18,0,0,1,.16-.11.15.15,0,0,1,.16.1c.14.27,1.35,2.74.86,3.5a.49.49,0,0,1-.5.25,1,1,0,0,1-.89-.44,2.16,2.16,0,0,1-.23-1.43A8.2,8.2,0,0,1,249.92,404.33Zm.19.52a3.56,3.56,0,0,0-.11,2.59.7.7,0,0,0,.59.29c.14,0,.21-.05.22-.09a.43.43,0,0,0,.06-.22A6.82,6.82,0,0,0,250.11,404.85Z" style="fill:#FFFFFF"></path><path d="M249.89,404.28a.17.17,0,0,1,.16-.06c.1,0,2.16.38,2.77,1.29a.92.92,0,0,1,.15.74.57.57,0,0,1-.5.51c-.78.08-2.24-1.52-2.57-2.3v-.08A.12.12,0,0,1,249.89,404.28Zm2.7,1.43a4.09,4.09,0,0,0-2.18-1.07c.49.8,1.61,1.83,2.09,1.78,0,0,.18,0,.2-.23v-.08A.52.52,0,0,0,252.59,405.71Z" style="fill:#FFFFFF"></path><polygon points="267.59 397.79 266.91 405.02 258.3 403.9 258.98 396.66 267.59 397.79" style="opacity:0.2;isolation:isolate"></polygon><path d="M321.86,337.77c2.65,3.92,13.94,63.29-2,74.61-11.73,8.31-58.81-5.46-58.81-5.46l.82-12s39.64,4.75,43.34,1.54-13.1-43.82-14-51.68S321.86,337.77,321.86,337.77Z" style="fill:#263238"></path><polygon points="355.07 403.84 342.06 401.76 343.31 398.22 357.46 401.17 355.07 403.84" style="fill:#fff;opacity:0.5"></polygon><polygon points="263.5 393.97 262.54 408.48 258.9 407.56 260.54 393.2 263.5 393.97" style="fill:#FFFFFF"></polygon><polygon points="263.5 393.97 262.54 408.48 258.9 407.56 260.54 393.2 263.5 393.97" style="fill:#fff;opacity:0.5"></polygon><path d="M289.2,326l39.74-2.18s-1.22-23.38,13-36.46a35.42,35.42,0,0,0-7.36-6.05c-4.52-2.9-10.3-6.35-18.81-6-6.2.26-13.56,4.29-13.56,4.29S289.1,284.83,289.2,326Z" style="fill:#FFFFFF"></path><path d="M289.2,326l39.74-2.18s-1.22-23.38,13-36.46a35.42,35.42,0,0,0-7.36-6.05c-4.52-2.9-10.3-6.35-18.81-6-6.2.26-13.56,4.29-13.56,4.29S289.1,284.83,289.2,326Z" style="fill:#fff;opacity:0.6000000000000001;isolation:isolate"></path><path d="M315.07,276.78c1.84,6,4.88,9.24,8,10.26,3.7,1.22,7.35-2.84,7.35-2.84s-1.72-3.17-1.17-5.12a9.29,9.29,0,0,1,1.8-3.23,19.84,19.84,0,0,1,1.37-1.54l-4.45-12.72C326.13,266.76,322.08,278.43,315.07,276.78Z" style="fill:#b97964"></path><path d="M326.66,266.2c-3,5.8.72,10.07,2.78,11.72a9.63,9.63,0,0,1,1.6-3.33Z" style="opacity:0.2;isolation:isolate"></path><path d="M352.37,260.88s-1.52,8.28-7.86,10.22-.23-15.87-.23-15.87Z" style="fill:#263238"></path><path d="M345.56,274.85a24.17,24.17,0,0,1-1.75,2.22,9,9,0,0,1-.77.75,10.21,10.21,0,0,1-7.06,2.61,9.18,9.18,0,0,1-8.71-6.43,3.58,3.58,0,0,1-.11-.35c-1.46-5,.68-8.74,3.78-15.32a9.95,9.95,0,0,1,16.81-2.16C352,261.33,349.3,269.51,345.56,274.85Z" style="fill:#b97964"></path><path d="M339.65,265.4a.92.92,0,0,0,.11,1.28c.34.18.84-.1,1.13-.61s.23-1.09-.11-1.28S339.94,264.88,339.65,265.4Z" style="fill:#263238"></path><path d="M345.53,268.61a.92.92,0,0,0,.1,1.27c.34.18.85-.09,1.13-.61s.24-1.09-.1-1.27S345.8,268.11,345.53,268.61Z" style="fill:#263238"></path><path d="M343.52,267.84a20.87,20.87,0,0,0,.06,5.8,3.4,3.4,0,0,1-2.75-.89Z" style="fill:#a24e3f"></path><path d="M339.67,262.47a.36.36,0,0,0,.25.27,2.75,2.75,0,0,1,1.89,1.64.36.36,0,0,0,.44.23.35.35,0,0,0,.22-.44h0a3.43,3.43,0,0,0-2.36-2.1.34.34,0,0,0-.44.23h0A.48.48,0,0,0,339.67,262.47Z" style="fill:#263238"></path><path d="M335.79,270.91h0a5.33,5.33,0,0,1,2.66,4.14.19.19,0,0,1-.18.19.19.19,0,0,1-.19-.17h0a5.07,5.07,0,0,0-2.48-3.83.17.17,0,0,1-.07-.24v0a.17.17,0,0,1,.24-.07Z" style="fill:#263238"></path><path d="M350.3,267a.31.31,0,0,0,.18-.09.34.34,0,0,0-.06-.48h0a3.47,3.47,0,0,0-3.13-.54.35.35,0,0,0-.2.45h0a.36.36,0,0,0,.45.2h0A2.77,2.77,0,0,1,350,267,.39.39,0,0,0,350.3,267Z" style="fill:#263238"></path><path d="M325.06,267.84h0a1.5,1.5,0,0,0,2.57-.49c.7-2.2,1.73-4,2.31-3.88,1,.18.55,1.26.55,1.26,2.59-.6,5.79-3.69,6-6.57a2.57,2.57,0,0,1,4.24-1.59s-5.94-6.36-8.21-5.25-5.94,5.66-7.25,12.12A14.11,14.11,0,0,0,325.06,267.84Z" style="fill:#263238"></path><path d="M325.3,262a6.94,6.94,0,0,0,1.8,5c1.65,1.78,3.74.61,4.35-1.61.52-2,.33-5.33-1.85-6.27A3.08,3.08,0,0,0,325.3,262Z" style="fill:#b97964"></path><path d="M330.1,253.37s1.41-7.67,11.69-5,13.67,10.2,12.43,13.66-14.8-1.73-14.8-1.73l3.18-1.08S334.11,257.64,330.1,253.37Z" style="fill:#263238"></path><path d="M312.26,291.83l12.65,31.47,19.9,25.29,2.66,1,6.47,7.59-10.11,6.05s-5.07-6.43-5.36-8.16a9.2,9.2,0,0,1,.46-3.88s-19.76-20.48-21.34-22.46-12.84-29-12.84-29Z" style="fill:#b97964"></path><path d="M304,279.39c8.7-.7,13.06,20.44,13.06,20.44l-12.44,6.44S292.93,280.29,304,279.39Z" style="fill:#FFFFFF"></path><path d="M299.62,290.51c.25,1.5.61,3.05,1,4.55s.82,2.79,1.24,4.07c.66,2,1.33,3.7,1.83,5s.92,2.18.92,2.18l12.45-6.45s-4.36-21.14-13.07-20.44C299.21,279.78,298.68,284.86,299.62,290.51Z" style="fill:#fff;opacity:0.4;isolation:isolate"></path></g><rect x="353.74" y="221.96" width="22.69" height="22.69" rx="4.17" style="fill:#FFFFFF"></rect><path d="M367.36,231.53a3,3,0,1,0-1.63-1.63,1.78,1.78,0,0,0,.56.36L358,238.54l.71.7.49-.48,1,1,.71-.7-1-1,.32-.32,1,1.05.7-.71-1-1L367,231A1.78,1.78,0,0,0,367.36,231.53Zm-.92-2.34a.65.65,0,0,1,0-.91.64.64,0,0,1,.93,0h0a.51.51,0,0,0,.45.17.53.53,0,0,0,.39-.29.69.69,0,0,1,.13-.2.65.65,0,1,1,.92.92.69.69,0,0,1-.2.13.5.5,0,0,0-.27.41.57.57,0,0,0,.19.46.65.65,0,1,1-.92,0,.5.5,0,1,0-.71-.71A.64.64,0,0,1,366.44,229.19Z" style="fill:#fff"></path><polygon points="359.66 244.13 356.76 250 363.02 244.13 359.66 244.13" style="fill:#FFFFFF"></polygon></g><g id="freepik--character-1--inject-200"><path d="M168.85,181s-1.46,7.76-.67,8.87a4,4,0,0,0,1.29,1.34l7.69,17.58,5-1.32L174,191.62s.51-2.06,1-4.24,1.33-3.64.67-4.36S170.19,181.19,168.85,181Z" style="fill:#ebb376"></path><path d="M162,180.59c.41.09.43,1.71,0,3.63s-1,3.42-1.44,3.33-.42-1.7,0-3.62S161.62,180.51,162,180.59Z" style="fill:#FFFFFF"></path><path d="M162,180.59c.41.09.43,1.71,0,3.63s-1,3.42-1.44,3.33-.42-1.7,0-3.62S161.62,180.51,162,180.59Z" style="fill:#fff;opacity:0.4;isolation:isolate"></path><path d="M165.47,182.34l22.88,4.59a.92.92,0,0,1,.72,1.09l-.63,3.14a.91.91,0,0,1-1.08.71l-22.88-4.59Z" style="fill:#FFFFFF"></path><polygon points="166.54 182.59 162.53 180.51 161.06 187.83 165.56 187.46 166.54 182.59" style="fill:#FFFFFF"></polygon><polygon points="166.54 182.59 162.53 180.51 161.06 187.83 165.56 187.46 166.54 182.59" style="opacity:0.2;isolation:isolate"></polygon><rect x="157.79" y="183.54" width="8.03" height="1.25" rx="0.25" transform="translate(-50.63 306.53) rotate(-78.64)" style="fill:#FFFFFF"></rect><path d="M188,186.87l.31.06a.92.92,0,0,1,.72,1.09l-.63,3.14a.91.91,0,0,1-1.08.71l-.32-.06Z" style="opacity:0.2;isolation:isolate"></path><path d="M172.59,186.34h0a.5.5,0,0,1-.59.39l-3.57-.72a.49.49,0,0,1-.39-.59h0a.5.5,0,0,1,.59-.39l3.57.72A.5.5,0,0,1,172.59,186.34Z" style="opacity:0.2;isolation:isolate"></path><path d="M213.27,203.26c2.51,2.38,2,12-5,13.33S213.27,203.26,213.27,203.26Z" style="fill:#FFFFFF"></path><path d="M213.27,203.26c2.51,2.38,2,12-5,13.33S213.27,203.26,213.27,203.26Z" style="fill:#fff;opacity:0.4;isolation:isolate"></path><path d="M187.7,173.12a.25.25,0,0,1-.24-.18,3.45,3.45,0,0,0-2.16-2,.25.25,0,0,1-.17-.31.26.26,0,0,1,.31-.17,3.85,3.85,0,0,1,2.5,2.38.25.25,0,0,1-.18.31Z" style="fill:#263238"></path><path d="M184.72,175.41a14.66,14.66,0,0,1-3,1.81,1.92,1.92,0,0,0,1.36,1.47Z" style="fill:#d58745"></path><path d="M184.4,173.17c-.25.52-.17,1.07.18,1.23s.82-.12,1.07-.64.17-1.07-.18-1.23S184.65,172.65,184.4,173.17Z" style="fill:#263238"></path><path d="M185.6,172.62l-.91-1S184.8,172.86,185.6,172.62Z" style="fill:#263238"></path><path d="M194.16,190.73a1.19,1.19,0,0,1-.27.07,10.42,10.42,0,0,1-4,.36c-3.93-.55-6.2-2-7.18-4.24h0c-1.31-3.31-.21-7.86,2.11-13a21,21,0,0,1,3.49-5.66.9.9,0,0,0,0-.09c.06-.05.12-.13.18-.19a7.67,7.67,0,0,1,6.91-2.34,16.19,16.19,0,0,1,3.22.84C208.86,170.33,204.21,187.91,194.16,190.73Z" style="fill:#ebb376"></path><path d="M193.89,190.8a10.19,10.19,0,0,1-4,.22c-3.92-.56-6.15-2.11-7.12-4.38a10.87,10.87,0,0,0,6.67,2A5.69,5.69,0,0,1,193.89,190.8Z" style="opacity:0.2;isolation:isolate"></path><path d="M188.29,168.23s-3.3,6.93,2.29,12.6c0,0,0,8.53,4.29,10.28,5.78,2.39,14.11-3.94,15.34-13.17C211.8,166,195.54,158.69,188.29,168.23Z" style="fill:#263238"></path><path d="M187.94,177.46c.43-1.12,2-2.64,3.68-1.72s1,5.75-3.8,5C187.13,180.68,187,179.78,187.94,177.46Z" style="fill:#ebb376"></path><path d="M203.65,165.42s-6.15-4.35-11-3c-5.63,1.5-8.57,4.17-5.34,11.31,0,0,12.87.69,16.37,2.94a44.82,44.82,0,0,1,5.8,4.4C213.21,173.77,208.05,165.33,203.65,165.42Z" style="fill:#263238"></path><path d="M188.38,189.89a13,13,0,0,1-1.84,10l14.17,1.31s-3.55-6-1.55-10.9C199.16,190.26,192.7,185,188.38,189.89Z" style="fill:#ebb376"></path><path d="M205.3,170.67s10.22-6.7,17.6-1.68,6.07,13.45,2.9,24.26,2.53,15.56,2.53,15.56-11.49-1.55-13.08-9.22,2.91-14.76-.79-19.25-7.74-3.29-7.74-3.29Z" style="fill:#263238"></path><path d="M175.07,247.74s-5.82-35.45,4.18-51.34c0,0,20-1.25,34,6.86,0,0-5.81,15.79-6.67,44.48Z" style="fill:#FFFFFF"></path><path d="M175.07,247.74s-5.82-35.45,4.18-51.34c0,0,20-1.25,34,6.86,0,0-5.81,15.79-6.67,44.48Z" style="fill:#fff;opacity:0.6000000000000001;isolation:isolate"></path><path d="M152.45,201.16,140.85,192s-.09-2.6-1-3.41-7.3-3.86-8.16-3.4-2.52,5.73-1.47,6.82,7,2.94,7.6,2.89l11.81,9.21Z" style="fill:#ebb376"></path><polygon points="233.81 409.6 227.53 410.7 224.96 402.14 222.61 394.29 229.84 391.76 231.95 401.2 233.81 409.6" style="fill:#ebb376"></polygon><polygon points="231.98 401.39 224.99 402.32 222.62 394.37 229.85 391.8 231.98 401.39" style="opacity:0.2;isolation:isolate"></polygon><polygon points="191.9 409.75 185.53 409.75 184.48 401.2 183.53 393.22 191.1 392.07 191.53 401.45 191.9 409.75" style="fill:#ebb376"></polygon><polygon points="191.53 402.01 184.48 401.7 183.53 393.47 191.1 392.19 191.53 402.01" style="opacity:0.2;isolation:isolate"></polygon><path d="M232.57,394.53l-10.32,1.82c-10.41-26-17.82-47.6-23.05-65.58-2.82-9.69-5-18.32-6.74-26l.44,28.25v63.7H182.49c-25.49-121-7.42-149.13-7.42-149.13l30.49-5.09a138.76,138.76,0,0,1,2.56,17.12l1.37,10.11,11.92,61.58Z" style="fill:#263238"></path><polygon points="220.63 395.07 233.44 390.83 233.26 396.27 222.68 399.65 220.63 395.07" style="fill:#FFFFFF"></polygon><polygon points="220.63 395.07 233.44 390.83 233.26 396.27 222.68 399.65 220.63 395.07" style="fill:#fff;opacity:0.6000000000000001;isolation:isolate"></polygon><polygon points="181.12 395.67 194.47 393.71 193.35 399.04 182.34 400.53 181.12 395.67" style="fill:#FFFFFF"></polygon><polygon points="181.12 395.67 194.47 393.71 193.35 399.04 182.34 400.53 181.12 395.67" style="fill:#fff;opacity:0.6000000000000001;isolation:isolate"></polygon><path d="M200.61,335.52c-.49-1.61-1-3.19-1.45-4.75-2.55-8.8-4.26-16.71-6.26-23.82v0l-1-13.08s6.52-14.37,4.08-24.48c.22.57,4.54,11.59,2.85,22.6A320.28,320.28,0,0,0,200.61,335.52Z" style="opacity:0.2;isolation:isolate"></path><path d="M184.85,408.55H192a.65.65,0,0,1,.63.5l1.46,6.6a1.1,1.1,0,0,1-.85,1.3l-.24,0c-2.91-.05-3.14-.23-6.8-.23-2.25,0-9,.24-12.16.24s-3.51-3.07-2.24-3.36c5.71-1.24,10-3,11.84-4.6A1.78,1.78,0,0,1,184.85,408.55Z" style="fill:#263238"></path><path d="M182.4,409.85a2.25,2.25,0,0,1-1.42-.38,1,1,0,0,1-.37-.94.52.52,0,0,1,.3-.49c.82-.43,3.22,1,3.48,1.21a.15.15,0,0,1,.08.17.17.17,0,0,1-.13.15A8.41,8.41,0,0,1,182.4,409.85Zm-1.1-1.54a.37.37,0,0,0-.23.05s-.1.06-.11.2a.76.76,0,0,0,.23.64,3.65,3.65,0,0,0,2.64.13A7.06,7.06,0,0,0,181.3,408.31Z" style="fill:#FFFFFF"></path><path d="M184.3,409.58h-.09c-.76-.41-2.24-2-2.09-2.83a.58.58,0,0,1,.56-.46,1,1,0,0,1,.75.23c.86.7,1,2.83,1,2.93a.18.18,0,0,1-.08.16A.14.14,0,0,1,184.3,409.58Zm-1.49-3h-.09c-.22,0-.24.13-.25.17-.1.49.85,1.72,1.61,2.29a4.14,4.14,0,0,0-.88-2.31A.58.58,0,0,0,182.81,406.58Z" style="fill:#FFFFFF"></path><path d="M227.29,408.55h7.11a.64.64,0,0,1,.63.5l1.46,6.6a1.09,1.09,0,0,1-.84,1.3l-.24,0c-2.91-.05-3.15-.23-6.8-.23-2.26,0-9.05.24-12.16.24s-3.52-3.07-2.24-3.36c5.71-1.24,10-3,11.83-4.6A1.8,1.8,0,0,1,227.29,408.55Z" style="fill:#263238"></path><path d="M224.84,409.85a2.26,2.26,0,0,1-1.43-.38,1.05,1.05,0,0,1-.36-.94.52.52,0,0,1,.3-.49c.82-.43,3.21,1,3.48,1.21a.16.16,0,0,1,.08.17.18.18,0,0,1-.13.15A8.57,8.57,0,0,1,224.84,409.85Zm-1.11-1.54a.36.36,0,0,0-.22.05s-.11.06-.12.2a.74.74,0,0,0,.24.64,3.65,3.65,0,0,0,2.64.13A7,7,0,0,0,223.73,408.31Z" style="fill:#FFFFFF"></path><path d="M226.73,409.58h-.08c-.77-.41-2.25-2-2.1-2.83a.59.59,0,0,1,.57-.46,1,1,0,0,1,.74.23c.86.7,1,2.83,1,2.93a.21.21,0,0,1-.08.16A.17.17,0,0,1,226.73,409.58Zm-1.49-3h-.08c-.23,0-.25.13-.26.17-.09.49.85,1.72,1.61,2.29a4.13,4.13,0,0,0-.87-2.31A.59.59,0,0,0,225.24,406.58Z" style="fill:#FFFFFF"></path><path d="M173.24,220.61c-.43-4.81,1-9.44,1.2-13.52a38.93,38.93,0,0,0,6.58-7.5S182.84,214,173.24,220.61Z" style="opacity:0.2;isolation:isolate"></path><polygon points="206.6 247.74 206.72 244.38 174.7 245.19 174.7 248.3 206.6 247.74"></polygon><rect x="196.45" y="244.6" width="1.29" height="3.31" transform="translate(394.18 492.52) rotate(180)" style="fill:#263238"></rect><rect x="181.66" y="244.98" width="1.14" height="3.62" transform="translate(364.46 493.58) rotate(180)" style="fill:#263238"></rect><rect x="204.75" y="244.43" width="1.09" height="3.87" transform="translate(410.6 492.72) rotate(180)" style="fill:#263238"></rect><path d="M140.85,192s11.66,9.21,13.63,10,17-3.36,17-3.36l1.91,7.52s-12,3.23-16.84,2.7-18.68-14-18.68-14Z" style="fill:#ebb376"></path><path d="M179.25,196.4c-3.51-1.7-14.5,3.19-14.5,3.19L169.47,212s9.33-4.67,10.51-7.18S182.07,197.76,179.25,196.4Z" style="fill:#FFFFFF"></path><path d="M179.25,196.4c-3.51-1.7-14.5,3.19-14.5,3.19L169.47,212s9.33-4.67,10.51-7.18S182.07,197.76,179.25,196.4Z" style="fill:#fff;opacity:0.6000000000000001;isolation:isolate"></path><path d="M159.82,176.63c-2.81-1.88-4.56,3.71-4.92,6.45s.44,6.67,1.81,5.8L150.38,192s1.49-2,0-3.07-5.53-2.14-5.53-2.14,3.62-.39,3.59-1.65-6.8-5.69-6.8-5.69,6.38.12,7.51-1.67-1.88-5.81-1.71-5.58,4.93,4.1,6.31,3.3.63-3.68.63-3.68Z" style="fill:#FFFFFF"></path><path d="M159.82,176.63c-2.81-1.88-4.56,3.71-4.92,6.45s.44,6.67,1.81,5.8L150.38,192s1.49-2,0-3.07-5.53-2.14-5.53-2.14,3.62-.39,3.59-1.65-6.8-5.69-6.8-5.69,6.38.12,7.51-1.67-1.88-5.81-1.71-5.58,4.93,4.1,6.31,3.3.63-3.68.63-3.68Z" style="fill:#fff;opacity:0.6000000000000001;isolation:isolate"></path><rect x="174.4" y="126.19" width="22.69" height="22.69" rx="4.17" style="fill:#FFFFFF"></rect><path d="M188.06,135c0-1-.83-1.7-2.25-1.7A3.34,3.34,0,0,0,183,134.5l-1.15-.82a4.88,4.88,0,0,1,4.08-1.77c2.27,0,3.73,1.06,3.73,2.81,0,2.63-2.79,2.8-2.79,4.87h-1.57C185.29,137.11,188.06,136.77,188.06,135Zm-3,7.21a1,1,0,0,1,2,0,1,1,0,0,1-2,0Z" style="fill:#fff"></path><polygon points="184.26 148.23 189.09 156.69 188.07 148.23 184.26 148.23" style="fill:#FFFFFF"></polygon></g><g id="freepik--treasure-chest--inject-200"><rect x="335.59" y="351.44" width="108.39" height="64.38" style="fill:#FFFFFF"></rect><rect x="338.28" y="353.67" width="0.71" height="59.91" style="opacity:0.2;isolation:isolate"></rect><rect x="342.34" y="353.67" width="0.71" height="59.91" style="opacity:0.2;isolation:isolate"></rect><rect x="346.41" y="353.67" width="0.71" height="59.91" style="opacity:0.2;isolation:isolate"></rect><rect x="350.48" y="353.67" width="0.71" height="59.91" style="opacity:0.2;isolation:isolate"></rect><rect x="354.55" y="353.67" width="0.71" height="59.91" style="opacity:0.2;isolation:isolate"></rect><rect x="358.61" y="353.67" width="0.71" height="59.91" style="opacity:0.2;isolation:isolate"></rect><rect x="362.68" y="353.67" width="0.71" height="59.91" style="opacity:0.2;isolation:isolate"></rect><rect x="374.82" y="353.67" width="0.71" height="59.91" style="opacity:0.2;isolation:isolate"></rect><rect x="378.88" y="353.67" width="0.71" height="59.91" style="opacity:0.2;isolation:isolate"></rect><rect x="382.95" y="353.67" width="0.71" height="59.91" style="opacity:0.2;isolation:isolate"></rect><rect x="387.02" y="353.67" width="0.71" height="59.91" style="opacity:0.2;isolation:isolate"></rect><rect x="391.09" y="353.67" width="0.71" height="59.91" style="opacity:0.2;isolation:isolate"></rect><rect x="395.15" y="353.67" width="0.71" height="59.91" style="opacity:0.2;isolation:isolate"></rect><rect x="399.22" y="353.67" width="0.71" height="59.91" style="opacity:0.2;isolation:isolate"></rect><rect x="403.29" y="353.67" width="0.71" height="59.91" style="opacity:0.2;isolation:isolate"></rect><rect x="407.36" y="353.67" width="0.71" height="59.91" style="opacity:0.2;isolation:isolate"></rect><rect x="411.43" y="353.67" width="0.71" height="59.91" style="opacity:0.2;isolation:isolate"></rect><rect x="415.49" y="353.67" width="0.71" height="59.91" style="opacity:0.2;isolation:isolate"></rect><rect x="419.56" y="353.67" width="0.71" height="59.91" style="opacity:0.2;isolation:isolate"></rect><rect x="423.63" y="353.67" width="0.71" height="59.91" style="opacity:0.2;isolation:isolate"></rect><rect x="427.7" y="353.67" width="0.71" height="59.91" style="opacity:0.2;isolation:isolate"></rect><rect x="431.76" y="353.67" width="0.71" height="59.91" style="opacity:0.2;isolation:isolate"></rect><rect x="435.83" y="353.67" width="0.71" height="59.91" style="opacity:0.2;isolation:isolate"></rect><rect x="439.9" y="353.67" width="0.71" height="59.91" style="opacity:0.2;isolation:isolate"></rect><path d="M372.14,357.57v52.36a5.48,5.48,0,0,1,2.48,2.33h65.19a5.45,5.45,0,0,1,4.17-2.83,4.63,4.63,0,0,1,.65,0V417H334.94v-7.59H335a5.25,5.25,0,0,1,.56,0,5.47,5.47,0,0,1,4.26,2.84H365a5.5,5.5,0,0,1,2.45-2.32V357.56a5.54,5.54,0,0,1-2.58-2.59H339.89a5.48,5.48,0,0,1-4.3,3.09,4.63,4.63,0,0,1-.65,0v-7.85H444.63v7.85a4.63,4.63,0,0,1-.65,0,5.47,5.47,0,0,1-4.3-3.09H374.75A5.53,5.53,0,0,1,372.14,357.57Z" style="fill:#FFFFFF"></path><path d="M372.14,357.57v52.36a5.48,5.48,0,0,1,2.48,2.33h65.19a5.45,5.45,0,0,1,4.17-2.83,4.63,4.63,0,0,1,.65,0V417H334.94v-7.59H335a5.25,5.25,0,0,1,.56,0,5.47,5.47,0,0,1,4.26,2.84H365a5.5,5.5,0,0,1,2.45-2.32V357.56a5.54,5.54,0,0,1-2.58-2.59H339.89a5.48,5.48,0,0,1-4.3,3.09,4.63,4.63,0,0,1-.65,0v-7.85H444.63v7.85a4.63,4.63,0,0,1-.65,0,5.47,5.47,0,0,1-4.3-3.09H374.75A5.53,5.53,0,0,1,372.14,357.57Z" style="fill:#fff;opacity:0.6000000000000001;isolation:isolate"></path><path d="M444,358.06v51.37a4.63,4.63,0,0,1,.65,0V417H369.75V350.25h74.88v7.85A4.63,4.63,0,0,1,444,358.06Z" style="opacity:0.2;isolation:isolate"></path><path d="M450.86,348.13l-6,1.56h-75l.81-43.37h74.68v0a19.25,19.25,0,0,1,18.35,14.42l1,3.87A19.28,19.28,0,0,1,450.86,348.13Z" style="fill:#FFFFFF"></path><path d="M450.86,348.13l-6,1.56h-.11l1-.25a20.49,20.49,0,0,0,14.68-25l-1.06-4.12A20.4,20.4,0,0,0,447,306.45a19.23,19.23,0,0,1,16.64,14.31l1,3.87A19.28,19.28,0,0,1,450.86,348.13Z" style="fill:#fff;opacity:0.6000000000000001;isolation:isolate"></path><path d="M378.69,348.84l-3.29.85h-5.57l.81-43.37H378A19.88,19.88,0,0,1,392,320.5l1,4A20,20,0,0,1,378.69,348.84Z" style="fill:#fff;opacity:0.6000000000000001;isolation:isolate"></path><path d="M450.86,348.13l-6,1.56h-.11l1-.25a20.49,20.49,0,0,0,14.68-25l-1.06-4.12A20.4,20.4,0,0,0,447,306.45a19.23,19.23,0,0,1,16.64,14.31l1,3.87A19.28,19.28,0,0,1,450.86,348.13Z" style="opacity:0.2;isolation:isolate"></path><path d="M378.69,348.84l-3.29.85h-5.57l.81-43.37H378A19.88,19.88,0,0,1,392,320.5l1,4A20,20,0,0,1,378.69,348.84Z" style="opacity:0.2;isolation:isolate"></path><path d="M374.83,313.14h4a19.28,19.28,0,0,1,19.28,19.28v6.23a0,0,0,0,1,0,0H355.55a0,0,0,0,1,0,0v-6.22A19.28,19.28,0,0,1,374.83,313.14Z" transform="translate(597.68 -120.69) rotate(75.46)" style="fill:#FFFFFF"></path><path d="M374.83,313.14h4a19.28,19.28,0,0,1,19.28,19.28v6.23a0,0,0,0,1,0,0H355.55a0,0,0,0,1,0,0v-6.22A19.28,19.28,0,0,1,374.83,313.14Z" transform="translate(597.68 -120.69) rotate(75.46)" style="fill:#fff;opacity:0.6000000000000001;isolation:isolate"></path><path d="M376.9,344.7l-5.42,1.41-9.15-35.28,5.42-1.41a12.35,12.35,0,0,1,5-.24,13.16,13.16,0,0,1,1.86.42,15.72,15.72,0,0,1,5.3,2.85,10.69,10.69,0,0,1,.81.7,19.34,19.34,0,0,1,3,3.46c.16.24.33.51.49.77a20,20,0,0,1,1.83,3.77c.1.26.2.54.29.82.15.44.28.88.4,1.35a22.54,22.54,0,0,1,.52,2.65q.06.45.09.87a20.68,20.68,0,0,1,0,4.24c0,.33-.08.64-.13.95a18.75,18.75,0,0,1-1.33,4.57c-.15.36-.31.69-.49,1A13.44,13.44,0,0,1,376.9,344.7Z" style="fill:#FFFFFF"></path><path d="M374.63,309.6l-11.82,3.06-.22-.84,10.18-2.64A13.16,13.16,0,0,1,374.63,309.6Z" style="opacity:0.2;isolation:isolate"></path><path d="M380.74,313.15l-16.68,4.33-.22-.85,16.09-4.18A10.69,10.69,0,0,1,380.74,313.15Z" style="opacity:0.2;isolation:isolate"></path><path d="M384.23,317.38l-18.93,4.91-.22-.84,18.66-4.84C383.9,316.85,384.07,317.12,384.23,317.38Z" style="opacity:0.2;isolation:isolate"></path><path d="M386.35,322l-19.8,5.13-.22-.84,19.73-5.11C386.16,321.41,386.26,321.69,386.35,322Z" style="opacity:0.2;isolation:isolate"></path><path d="M387.36,326.84l-19.56,5.08-.22-.84L387.27,326Q387.33,326.42,387.36,326.84Z" style="opacity:0.2;isolation:isolate"></path><path d="M387.21,332l-18.16,4.71-.22-.86,18.51-4.8C387.3,331.41,387.26,331.72,387.21,332Z" style="opacity:0.2;isolation:isolate"></path><path d="M385.39,337.63l-15.09,3.91-.22-.84,15.8-4.1C385.73,337,385.57,337.29,385.39,337.63Z" style="opacity:0.2;isolation:isolate"></path><path d="M453.14,310.22h-67.7a10,10,0,0,0-.9-.71h67.75C452.58,309.73,452.86,310,453.14,310.22Z" style="opacity:0.2;isolation:isolate"></path><path d="M456.75,314.46H389.26l-.49-.71h67.5C456.44,314,456.6,314.22,456.75,314.46Z" style="opacity:0.2;isolation:isolate"></path><path d="M458.81,318.7H391.39c-.08-.24-.17-.48-.27-.71h67.43C458.64,318.22,458.73,318.46,458.81,318.7Z" style="opacity:0.2;isolation:isolate"></path><polygon points="459.98 322.94 392.58 322.94 392.4 322.23 459.8 322.23 459.98 322.94" style="opacity:0.2;isolation:isolate"></polygon><path d="M460.88,327.18H393.5c0-.23-.06-.47-.1-.71h67.39C460.82,326.7,460.86,326.94,460.88,327.18Z" style="opacity:0.2;isolation:isolate"></path><path d="M461,330.71c0,.24,0,.47-.05.71h-67.4c0-.23,0-.47.05-.71Z" style="opacity:0.2;isolation:isolate"></path><path d="M460.31,335a5.75,5.75,0,0,1-.2.71H392.67c.08-.24.15-.47.22-.71Z" style="opacity:0.2;isolation:isolate"></path><path d="M458.65,339.19c-.13.24-.26.48-.4.71H390.72c.15-.23.28-.47.42-.71Z" style="opacity:0.2;isolation:isolate"></path><path d="M455.67,343.43c-.23.24-.45.48-.69.71H387.27c.25-.23.49-.47.73-.71Z" style="opacity:0.2;isolation:isolate"></path><path d="M450.21,347.67c-.48.26-1,.5-1.47.71H380.21c.61-.21,1.21-.45,1.78-.71Z" style="opacity:0.2;isolation:isolate"></path><path d="M444.8,350.58H369.93a.45.45,0,0,1-.45-.44h0a.45.45,0,0,1,.45-.45H444.8a.45.45,0,0,1,.44.45h0A.44.44,0,0,1,444.8,350.58Z" style="fill:#263238"></path></g></svg>