<?xml version="1.0" encoding="UTF-8"?>
<svg version="1.1" xmlns="http://www.w3.org/2000/svg" width="512" height="512">
<path d="M0 0 C0.82758873 -0.00453111 1.65517745 -0.00906223 2.50784463 -0.01373065 C5.2790649 -0.02638394 8.05008888 -0.02475367 10.82133484 -0.02310181 C12.80906934 -0.02908649 14.79680152 -0.0358919 16.78453064 -0.04345703 C22.18337228 -0.06113074 27.58215053 -0.065813 32.9810183 -0.0670886 C37.48890737 -0.06898797 41.99678169 -0.07634597 46.50466508 -0.08343279 C57.14131651 -0.09971971 67.77793409 -0.10460148 78.41459656 -0.10317993 C89.38399087 -0.10197853 100.35318843 -0.12307941 111.32253295 -0.15466726 C120.74264778 -0.18082645 130.16269833 -0.19154737 139.5828492 -0.19026911 C145.20800612 -0.18975936 150.83298819 -0.1954501 156.4581089 -0.21662521 C161.74985174 -0.23600134 167.04125286 -0.23613618 172.33300781 -0.22159195 C174.27278836 -0.21950196 176.21259026 -0.22421605 178.15233421 -0.23631287 C180.80556948 -0.25178464 183.45762929 -0.24244473 186.11083984 -0.22705078 C186.87398902 -0.23733791 187.63713819 -0.24762503 188.4234131 -0.25822389 C195.49804895 -0.16784619 201.56982915 2.49425826 206.55839539 7.57992554 C207.1010907 8.11230835 207.64378601 8.64469116 208.20292664 9.19320679 C213.61955259 16.47479762 213.17635148 23.80521872 213.14030457 32.55705261 C213.14519627 34.02440075 213.15138737 35.49174503 213.15876245 36.95908278 C213.17514984 40.98297957 213.17284651 45.00668028 213.16738749 49.03059876 C213.16471579 53.37360859 213.17925174 57.71656633 213.19148254 62.05955505 C213.21253315 70.56506012 213.21707759 79.07049701 213.21529466 87.57602505 C213.21398679 94.49035027 213.21779243 101.40465423 213.22521973 108.31897545 C213.22731894 110.31100819 213.22941654 112.30304094 213.23151255 114.29507369 C213.23307784 115.78233904 213.23307784 115.78233904 213.23467475 117.29965016 C213.25357579 136.0504744 213.2525274 154.80125953 213.24570543 173.55208936 C213.24013062 190.70064482 213.26095297 207.84905085 213.29406589 224.99757139 C213.32781077 242.61022743 213.34297019 260.22281192 213.33834887 277.8355009 C213.33610491 287.72183359 213.34133648 297.6080282 213.36624146 307.49433327 C213.3872649 315.91144045 213.39083625 324.32833383 213.37194186 332.74544982 C213.36279028 337.0384204 213.36162307 341.33099246 213.38229752 345.62393188 C213.40103289 349.55780869 213.39647599 353.49096128 213.3737517 357.42481073 C213.36957233 358.8440174 213.37374374 360.26327988 213.38734764 361.6824275 C213.4715502 371.11239075 212.55881536 378.95401075 206.01980734 386.17300922 C199.09942594 392.85566513 191.48928211 393.60395734 182.24882507 393.53752136 C180.86283578 393.51243137 179.47684953 393.48717247 178.09086609 393.46176147 C176.61327612 393.44619994 175.13566901 393.43219911 173.65805054 393.41963196 C170.48777799 393.39079923 167.31774099 393.35383655 164.14762306 393.3113327 C159.12372464 393.24692245 154.100023 393.21861319 149.07577515 393.19839478 C148.22537558 393.1947947 147.37497602 393.19119462 146.49880677 393.18748546 C144.76045568 393.18013665 143.02210435 393.17284263 141.2837528 393.16560221 C129.59796141 393.11483574 117.91334679 393.03787309 106.2285614 392.87338257 C98.33101608 392.76248615 90.43504017 392.70549455 82.53669232 392.70907617 C78.36462312 392.70878723 74.19674798 392.68161201 70.0256443 392.58797455 C51.95851733 391.35468964 51.95851733 391.35468964 35.87171936 397.55953979 C32.93758176 400.58671727 30.70881518 403.830219 28.710989 407.53263092 C27.43464729 409.82690652 25.82053748 411.70620966 24.05839539 413.64242554 C23.52987976 414.23797241 23.00136414 414.83351929 22.45683289 415.44711304 C11.14124862 427.48606798 -2.96691685 434.27123494 -17.58280945 441.44967651 C-30.77743108 447.93822058 -43.83183503 454.62031124 -56.65888977 461.81381226 C-59.38660339 463.34163981 -62.12280749 464.85353698 -64.85957336 466.36508179 C-84.5561615 477.30112784 -103.75031763 488.76492077 -121.40644836 502.80307007 C-123.40034706 504.38332963 -125.39664154 505.95853758 -127.41035461 507.51351929 C-128.33557922 508.23366211 -128.33557922 508.23366211 -129.27949524 508.96835327 C-133.54689439 511.77582494 -137.23660513 512.51873387 -142.30630493 512.53485107 C-143.52166931 512.54338104 -144.73703369 512.55191101 -145.98922729 512.56069946 C-147.32792677 512.5600005 -148.66662614 512.55907748 -150.00532532 512.55795288 C-151.42163954 512.56394031 -152.83795051 512.57074635 -154.2542572 512.57830811 C-158.09530237 512.59595466 -161.93625839 512.60066294 -165.77734017 512.60193968 C-168.17936072 512.60336273 -170.58135871 512.60763526 -172.98337364 512.61293411 C-181.36977448 512.63143073 -189.75611179 512.63960529 -198.14253235 512.63803101 C-205.94912873 512.63683006 -213.75544843 512.65792397 -221.56197482 512.68951833 C-228.27298634 512.71570711 -234.98390764 512.7263972 -241.69496983 512.72512019 C-245.6993061 512.72461127 -249.70339647 512.73025529 -253.70768166 512.75147629 C-257.47610869 512.77090248 -261.24405639 512.77095368 -265.01250076 512.75644302 C-267.04582299 512.75336949 -269.07914548 512.7700011 -271.11239624 512.787323 C-279.47584138 512.72999387 -284.70820354 511.71909201 -291.46113586 506.59164429 C-291.99094055 506.0515271 -292.52074524 505.51140991 -293.06660461 504.95492554 C-293.60929993 504.42254272 -294.15199524 503.89015991 -294.71113586 503.34164429 C-298.65609007 498.03842737 -299.70062872 492.96683725 -299.65815735 486.47128296 C-299.66845222 485.35267632 -299.66845222 485.35267632 -299.67895508 484.21147156 C-299.69714011 481.76508112 -299.69339663 479.31933732 -299.68769836 476.87289429 C-299.69226513 475.15807388 -299.69757217 473.44325529 -299.70358276 471.72843933 C-299.71249833 468.14004061 -299.71010968 464.5518646 -299.70014954 460.96347046 C-299.68867945 456.38731032 -299.70884887 451.81192412 -299.73806667 447.23586559 C-299.75650467 443.69513644 -299.75612086 440.15459001 -299.75042915 436.61382484 C-299.75027677 434.9278893 -299.75625169 433.2419407 -299.76872063 431.55605125 C-299.85321733 418.25619618 -298.46631876 408.5959686 -288.94892883 398.65170288 C-284.05547138 394.32215899 -278.49922882 391.22760545 -272.81660461 388.07992554 C-271.53230402 387.35026579 -270.24903665 386.61878476 -268.9667511 385.8855896 C-266.34630072 384.39048038 -263.72072737 382.90509425 -261.09004211 381.42807007 C-255.30282403 378.17557646 -249.5627023 374.84189767 -243.81660461 371.51742554 C-241.69430709 370.29329674 -239.57191256 369.06933612 -237.44941711 367.84555054 C-235.38421374 366.653014 -233.31910888 365.46030683 -231.25410461 364.26742554 C-229.7106134 363.37700562 -229.7106134 363.37700562 -228.13594055 362.46859741 C-225.15019395 360.74215174 -222.17015784 359.00624565 -219.19160461 357.26742554 C-218.31770081 356.76372437 -217.443797 356.26002319 -216.54341125 355.74105835 C-198.33321997 345.0581237 -191.64185251 332.47989349 -184.52754211 313.08773804 C-183.9747363 311.59187561 -183.42147356 310.09618198 -182.86778259 308.60064697 C-181.41118423 304.66329006 -179.95974255 300.72405383 -178.50971985 296.78427124 C-174.03356469 284.62655235 -169.54119946 272.4747747 -165.02264404 260.33274841 C-164.51887429 258.97895035 -164.0154539 257.62502222 -163.51242065 256.27095032 C-161.95277653 252.07452842 -160.37730819 247.88434231 -158.79316711 243.69711304 C-158.2304158 242.18384933 -158.2304158 242.18384933 -157.65629578 240.64001465 C-150.94937992 223.05817678 -140.65401489 209.00828012 -123.45698547 200.60409546 C-116.44918755 197.67950566 -109.06323593 195.84548204 -101.75410461 193.82992554 C-99.93549908 193.32071269 -98.11714507 192.81060085 -96.29902649 192.2996521 C-92.39232648 191.20352854 -88.48397423 190.113567 -84.57441711 189.02767944 C-77.85845266 187.16050734 -71.14999549 185.26706223 -64.44160461 183.37289429 C-59.87935098 182.08686254 -55.31674069 180.80209966 -50.75410461 179.51742554 C-49.64027405 179.20338776 -48.52644348 178.88934998 -47.37886047 178.5657959 C-44.2234551 177.67713393 -41.06706987 176.79204659 -37.91035461 175.90805054 C-36.96023499 175.63990036 -36.01011536 175.37175018 -35.03120422 175.09547424 C-34.16439026 174.85347794 -33.29757629 174.61148163 -32.40449524 174.3621521 C-31.64737244 174.14963806 -30.89024963 173.93712402 -30.11018372 173.71817017 C-28.25410461 173.26742554 -28.25410461 173.26742554 -26.25410461 173.26742554 C-26.25779179 172.47597137 -26.26147896 171.68451721 -26.26527786 170.86907959 C-26.35367587 151.59724325 -26.41983709 132.32544747 -26.4613533 113.05345154 C-26.4819647 103.73358878 -26.51005807 94.41386149 -26.55586243 85.09408569 C-26.59577378 76.96947004 -26.62154777 68.84495251 -26.63045859 60.72024155 C-26.63566608 56.41958212 -26.64787576 52.11920337 -26.67702484 47.81863403 C-26.70426199 43.7671555 -26.71253296 39.71607213 -26.70653534 35.66451073 C-26.70763188 34.18107134 -26.71553647 32.69761815 -26.73092651 31.21425819 C-26.82419116 21.7577129 -26.55109338 15.11018568 -20.07051086 7.80648804 C-18.95482727 6.8590271 -18.95482727 6.8590271 -17.81660461 5.89242554 C-17.07539368 5.24531616 -16.33418274 4.59820679 -15.57051086 3.93148804 C-10.57128158 0.34013614 -6.02029763 -0.02422069 0 0 Z M-6.71510696 19.64033127 C-9.18571095 23.85769285 -8.78997711 28.009316 -8.73512268 32.80886841 C-8.73854038 33.89442748 -8.74195808 34.97998656 -8.74547935 36.09844136 C-8.75208594 39.74845961 -8.7300353 43.39774808 -8.70820618 47.04769897 C-8.70707831 49.65909304 -8.70771038 52.27048838 -8.7099762 54.88188171 C-8.71207425 60.51042025 -8.69951766 66.13877341 -8.67702484 71.76726532 C-8.64452523 79.90510075 -8.63409993 88.04284649 -8.62907287 96.18073979 C-8.62031701 109.38367675 -8.59369355 122.58651489 -8.55586243 135.78939819 C-8.51914987 148.61523952 -8.49083442 161.441054 -8.47383118 174.26693726 C-8.47278028 175.05744019 -8.47172939 175.84794312 -8.47064665 176.66240069 C-8.46542652 180.62809687 -8.46037169 184.59379323 -8.45539904 188.55948973 C-8.41392792 221.46220694 -8.34347158 254.36480302 -8.25410461 287.26742554 C-4.44305351 284.77631057 -1.14819419 282.37874393 1.99589539 279.07992554 C5.55372457 275.36351095 5.55372457 275.36351095 7.74589539 274.26742554 C7.74809523 272.71910601 7.74809523 272.71910601 7.75033951 271.13950729 C7.78690573 246.04400233 7.84631742 220.94863112 7.92979813 195.85323715 C7.9696375 183.71737186 8.00200509 171.58157187 8.01689148 159.44564819 C8.02988262 148.87015858 8.05678222 138.29481237 8.10050845 127.71940351 C8.1231804 122.11780199 8.13880264 116.51637773 8.13777924 110.91472626 C8.13703601 105.64516824 8.15485073 100.37600288 8.18706322 95.1065464 C8.19560061 93.16995089 8.19728628 91.23331152 8.19169807 89.29670525 C8.18509426 86.65706718 8.20289094 84.01869175 8.22691345 81.37918091 C8.21527283 80.22353705 8.21527283 80.22353705 8.20339704 79.04454684 C8.25941989 75.5790769 8.47873949 73.62496559 10.58008957 70.81268692 C13.48376497 68.74096958 15.98263535 68.4217158 19.49589539 67.89242554 C27.77069815 66.29417703 31.79696102 63.35040238 37.49589539 57.39242554 C40.42256054 53.06135395 41.28457583 47.82789134 42.31523132 42.77767944 C43.44481183 37.46814791 43.44481183 37.46814791 46.74589539 35.26742554 C49.71460798 35.06198828 52.59028248 34.97374088 55.56010437 34.97689819 C56.46119934 34.97018097 57.36229431 34.96346375 58.29069519 34.95654297 C61.27451566 34.93751825 64.25811177 34.93363664 67.24198914 34.93148804 C69.31320286 34.92506367 71.38441565 34.91833558 73.45562744 34.91131592 C77.79923101 34.89933227 82.14275497 34.89563626 86.4863739 34.89682007 C92.05636714 34.89702342 97.62585108 34.86970921 103.19572353 34.83527565 C107.4739314 34.81305622 111.75201568 34.80898099 116.03027534 34.81003952 C118.08401814 34.80767654 120.13776399 34.79881403 122.19145012 34.78337479 C125.06209542 34.76381334 127.93162927 34.76951386 130.80229187 34.78158569 C131.65281631 34.77034668 132.50334076 34.75910767 133.37963867 34.74752808 C139.11862033 34.80896159 139.11862033 34.80896159 142.25262451 37.09954834 C144.25667071 40.00895087 144.59644676 42.53630275 145.12089539 46.01742554 C146.7191439 54.2922283 149.66291854 58.31849117 155.62089539 64.01742554 C159.95196697 66.94409069 165.18542958 67.80610599 170.23564148 68.83676147 C175.54517302 69.96634198 175.54517302 69.96634198 177.74589539 73.26742554 C177.99544305 75.22034025 177.99544305 75.22034025 177.99478436 77.48567963 C177.99938315 78.35020138 178.00398195 79.21472314 178.0087201 80.10544252 C178.00100476 81.53086154 178.00100476 81.53086154 177.99313354 82.9850769 C177.99554796 83.99416091 177.99796238 85.00324492 178.00044996 86.04290724 C178.00610684 89.44007719 177.99740876 92.83706077 177.98881531 96.23422241 C177.9898877 98.66326448 177.99182573 101.09230629 177.99456787 103.52134705 C177.99892118 109.44358106 177.99396368 115.36576441 177.98471757 121.28798878 C177.97434182 128.18113056 177.97440354 135.07426023 177.97489015 141.96740836 C177.97539098 154.26452874 177.96622363 166.56162313 177.95170593 178.85873413 C177.93761811 190.79786655 177.93053515 202.7369761 177.93119812 214.67611694 C177.93123808 215.41142047 177.93127803 216.146724 177.9313192 216.90430945 C177.93135955 217.63832742 177.93139991 218.37234538 177.93144149 219.12860632 C177.93213102 232.71093766 177.92624305 246.29325925 177.91728827 259.87558743 C177.91426941 264.68323801 177.91320841 269.49088679 177.91275597 274.29853821 C177.91200333 280.76630987 177.90566737 287.23406216 177.89558983 293.7018261 C177.89266101 296.08070159 177.89144023 298.45957988 177.89201736 300.83845711 C177.89250566 304.07558877 177.88687602 307.31265201 177.87960815 310.54977417 C177.88115676 311.50005352 177.88270536 312.45033286 177.88430089 313.42940855 C177.87946422 314.72619118 177.87946422 314.72619118 177.87452984 316.04917145 C177.87382541 316.79673344 177.87312099 317.54429543 177.87239522 318.31451082 C177.74589539 320.26742554 177.74589539 320.26742554 176.74589539 323.26742554 C175.69530945 323.41437866 174.64472351 323.56133179 173.56230164 323.71273804 C164.07609405 325.16945969 156.32246946 326.6981022 149.94511414 334.45883179 C146.24550103 339.9596885 144.86313601 345.16072063 144.07011414 351.70101929 C143.74589539 354.26742554 143.74589539 354.26742554 142.74589539 357.26742554 C139.32808125 358.69854482 135.70138241 358.33173063 132.05644226 358.25057983 C130.68027331 358.22449192 129.30409252 358.19902347 127.92790222 358.17408752 C127.20128891 358.15968313 126.4746756 358.14527874 125.7260437 358.13043785 C121.03731853 358.05000427 116.34781286 358.03812785 111.65851593 358.01533794 C107.55040642 357.99153132 103.44559147 357.94281478 99.33866882 357.83895874 C80.660011 356.40871935 80.660011 356.40871935 63.85136414 362.40267944 C60.52987517 365.81486752 56.74589539 370.29892554 56.74589539 375.26742554 C74.00052791 375.38423168 91.25503704 375.47240018 108.50997448 375.5264864 C116.52177332 375.55226721 124.53332649 375.58741505 132.54496765 375.6446228 C139.52800339 375.69446195 146.51086122 375.72671746 153.49406987 375.73786801 C157.19166641 375.74438605 160.88875397 375.75970164 164.58618736 375.79607582 C168.71411584 375.83635561 172.84115972 375.83737467 176.96928406 375.83505249 C178.1949559 375.85302887 179.42062775 375.87100525 180.68344116 375.88952637 C181.80939697 375.88265305 182.93535278 375.87577972 184.09542847 375.86869812 C185.07160724 375.87330709 186.04778601 375.87791605 187.05354595 375.88266468 C191.19748566 374.93571705 192.38508081 373.85710368 194.74589539 370.26742554 C195.49717936 365.68510447 195.41657746 361.11142725 195.37408447 356.48164368 C195.37912951 355.04473963 195.38635801 353.60784187 195.39558262 352.17095858 C195.4145382 348.22201898 195.40225299 344.27369736 195.38485968 340.32477319 C195.37150628 336.06636091 195.3869154 331.80804028 195.39868164 327.54963684 C195.41707733 319.20756571 195.4085333 310.86572853 195.39059342 302.52366465 C195.3765785 295.74557795 195.37267222 288.96755483 195.37603569 282.18945503 C195.37675185 280.74346498 195.37675185 280.74346498 195.37748249 279.268263 C195.37850879 277.31005758 195.37956415 275.35185217 195.38064825 273.39364678 C195.38921909 256.07182238 195.37252733 238.75011109 195.34281921 221.42831421 C195.31397641 204.61088307 195.30689989 187.79361486 195.3223114 170.97616577 C195.33906227 152.6720508 195.3431195 134.36801321 195.32560104 116.06389624 C195.32375661 114.11312426 195.32192188 112.16235227 195.32009697 110.21158028 C195.31918488 109.25170769 195.31827279 108.2918351 195.31733306 107.30287547 C195.31172107 100.5304706 195.31504097 93.75810344 195.32164192 86.98570061 C195.32936341 78.73599533 195.32266523 70.48645058 195.29746688 62.23677772 C195.28494474 58.02563811 195.27885803 53.81474878 195.29000854 49.60359955 C195.30001614 45.75143899 195.2916665 41.89977858 195.26842736 38.04767913 C195.26324873 36.65140901 195.2648646 35.25509443 195.27382202 33.85884344 C195.28495808 31.96607956 195.26923355 30.07321392 195.25205326 28.18049526 C195.25086178 27.12758311 195.2496703 26.07467095 195.24844271 24.98985237 C194.61303145 21.54766774 193.5066585 20.36362732 190.74589539 18.26742554 C187.99314568 17.87449378 185.64013863 17.72651003 182.88883972 17.75949097 C182.09195158 17.753251 181.29506343 17.74701104 180.47402716 17.74058199 C177.80067808 17.72461226 175.12823578 17.73727146 172.45487976 17.74984741 C170.53961657 17.74442805 168.62435755 17.73730644 166.70910645 17.72860718 C161.50459159 17.71034878 156.30039338 17.71745178 151.09587288 17.73012352 C145.65380616 17.74023813 140.21176686 17.73086212 134.7696991 17.72457886 C125.63004174 17.71729797 116.4905136 17.72690176 107.35087585 17.74594116 C96.77845769 17.7677107 86.20634805 17.76065964 75.63393736 17.73863554 C66.56292943 17.72049415 57.49201448 17.71791706 48.42099428 17.72839022 C43.00053124 17.73463207 37.58021329 17.73544175 32.15975952 17.72224426 C27.0641705 17.71070476 21.96897996 17.7186768 16.87343407 17.74182129 C15.00132599 17.74711854 13.12918448 17.7455773 11.25708961 17.73677063 C8.70525462 17.72587147 6.15470377 17.73950969 3.60295105 17.75949097 C2.85859598 17.75056808 2.1142409 17.74164519 1.34732962 17.73245192 C-1.77301725 17.77998437 -3.97613681 18.11235718 -6.71510696 19.64033127 Z M58.74589539 52.26742554 C57.09589539 56.22742554 55.44589539 60.18742554 53.74589539 64.26742554 C46.12766111 75.54827245 38.67450306 79.88050567 25.74589539 85.26742554 C25.74589539 141.69742554 25.74589539 198.12742554 25.74589539 256.26742554 C30.88111118 252.90303219 30.88111118 252.90303219 35.12089539 248.95492554 C43.16412252 240.70049769 52.14614413 233.00941952 62.74589539 228.26742554 C61.35379275 225.30337925 59.71231891 222.73960497 57.80839539 220.07992554 C51.72193583 211.05415137 49.30567486 200.12509931 51.27714539 189.36898804 C54.0680741 177.32552392 59.02176559 167.59970832 69.49589539 160.36898804 C80.3946362 154.16276063 91.66415547 152.38697115 104.06620789 154.95492554 C116.33409474 158.7200059 125.46411845 165.80671509 131.55839539 177.14242554 C137.02959399 188.87670676 136.65781156 200.14048539 132.74589539 212.26742554 C130.07872232 218.91644208 126.62507147 224.04784182 121.74589539 229.26742554 C122.38655945 229.63094116 123.02722351 229.99445679 123.68730164 230.36898804 C133.74695453 236.21588018 140.00025461 241.03050322 143.74589539 252.26742554 C144.68118423 262.34094642 143.38066228 269.95138958 136.90214539 277.83773804 C134.11005934 281.11391386 131.22898772 284.30620742 128.33525085 287.49252319 C126.18332845 289.89566849 124.14695959 292.38274384 122.12089539 294.89242554 C118.87860391 298.89481465 115.5819641 302.84338188 112.24589539 306.76742554 C108.13304116 311.60716322 104.08960869 316.49695761 100.08573914 321.42758179 C98.3468702 323.53802873 96.5923946 325.62587692 94.81230164 327.70101929 C94.31343445 328.28367554 93.81456726 328.86633179 93.30058289 329.46664429 C92.32887393 330.59860891 91.35377597 331.72767593 90.37480164 332.85336304 C88.00809283 335.61222998 86.39129871 337.9766189 84.74589539 341.26742554 C98.93589539 341.26742554 113.12589539 341.26742554 127.74589539 341.26742554 C129.72589539 336.64742554 131.70589539 332.02742554 133.74589539 327.26742554 C140.50192987 316.36564262 148.7228326 312.63944837 160.74589539 308.26742554 C160.74589539 234.67742554 160.74589539 161.08742554 160.74589539 85.26742554 C156.78589539 83.61742554 152.82589539 81.96742554 148.74589539 80.26742554 C137.46504847 72.64919126 133.13281525 65.19603321 127.74589539 52.26742554 C104.97589539 52.26742554 82.20589539 52.26742554 58.74589539 52.26742554 Z M72.74589539 181.26742554 C68.87303072 186.86405078 67.2506484 192.79496429 67.99980164 199.56039429 C69.63567065 208.35871682 74.60407343 214.10722643 81.74589539 219.26742554 C87.92307317 222.35601443 95.60669601 222.48872041 102.19511414 220.54476929 C109.77713552 216.97760875 114.94549976 210.72554803 118.05839539 203.01742554 C119.33954054 196.02936106 118.61201914 189.39553753 115.09745789 183.15023804 C110.43100158 176.64956769 104.55970807 172.84153299 96.74589539 171.26742554 C86.99484139 170.22266975 79.13501199 174.03991806 72.74589539 181.26742554 Z M-35.54267883 194.20761108 C-36.29422745 194.41415817 -37.04577606 194.62070526 -37.82009888 194.83351135 C-40.31714758 195.52079608 -42.81304704 196.21214156 -45.30879211 196.90414429 C-47.04838466 197.38541505 -48.78797818 197.86668229 -50.52757263 198.34794617 C-54.18502608 199.36067426 -57.84180038 200.3758183 -61.49824524 201.3921814 C-66.15394219 202.68573898 -70.81220757 203.96976986 -75.4711895 205.25143719 C-79.0726266 206.24401549 -82.67209038 207.24360911 -86.2710762 208.24503517 C-87.98533159 208.72077348 -89.70029282 209.19397671 -91.41599655 209.66446495 C-110.68326116 214.68903375 -110.68326116 214.68903375 -127.25410461 225.26742554 C-128.14355774 226.05826538 -128.14355774 226.05826538 -129.05097961 226.86508179 C-133.04361725 230.88421923 -135.37808083 235.35133265 -137.57466125 240.52059937 C-137.87684854 241.22238469 -138.17903582 241.92417002 -138.49038029 242.64722157 C-141.74715723 250.29131917 -144.67279532 258.05323631 -147.56269836 265.84164429 C-148.13846629 267.3828789 -148.7146533 268.92395701 -149.29122925 270.46488953 C-150.79291614 274.48130479 -152.2894286 278.49962684 -153.78462219 282.51846313 C-155.28529244 286.54977241 -156.79025454 290.5794778 -158.29512024 294.60922241 C-158.58868943 295.39553165 -158.88225863 296.1818409 -159.18472385 296.99197769 C-160.63267622 300.87005852 -162.0811816 304.74793203 -163.53045654 308.6255188 C-163.94557165 309.73619658 -163.94557165 309.73619658 -164.36907291 310.86931229 C-164.9114563 312.32035396 -165.45393156 313.7713613 -165.99650478 315.222332 C-167.58449432 319.47028715 -169.16433611 323.72118487 -170.74067688 327.97348022 C-171.44269585 329.85154961 -172.1450532 331.72949257 -172.84785461 333.60726929 C-173.29112343 334.81439827 -173.29112343 334.81439827 -173.74334717 336.0459137 C-179.34506503 350.92225874 -188.87853521 360.1952268 -202.25410461 368.26742554 C-203.73910461 369.25742554 -203.73910461 369.25742554 -205.25410461 370.26742554 C-203.80288296 373.59237353 -201.98341193 375.79517712 -199.4339447 378.36174011 C-198.63763138 379.16802856 -197.84131805 379.97431702 -197.02087402 380.80503845 C-196.14602859 381.68054855 -195.27118317 382.55605865 -194.36982727 383.45809937 C-193.44937119 384.38687897 -192.5289151 385.31565857 -191.58056641 386.27258301 C-189.05862264 388.81644561 -186.53015997 391.35372895 -183.99977922 393.88919663 C-182.41977563 395.47284456 -180.8410779 397.05778253 -179.26281357 398.64316368 C-173.75878728 404.17166794 -168.24907873 409.69444295 -162.73457336 415.2124939 C-157.58987959 420.36082955 -152.4584865 425.52216892 -147.33292544 430.68954641 C-142.93320528 435.1239017 -138.52397071 439.54864375 -134.10724866 443.96606463 C-131.46867029 446.60543764 -128.83425879 449.2486744 -126.20950699 451.90180397 C-123.28580754 454.85640559 -120.34263982 457.79082445 -117.39717102 460.72372437 C-116.09097557 462.05217125 -116.09097557 462.05217125 -114.75839233 463.40745544 C-113.95643936 464.19964478 -113.15448639 464.99183411 -112.32823181 465.80802917 C-111.63395395 466.50431836 -110.93967609 467.20060755 -110.22435951 467.91799641 C-108.35812524 469.50684397 -108.35812524 469.50684397 -106.14075279 469.05716991 C-103.79571943 468.07554709 -101.67708057 466.9021703 -99.49238586 465.59945679 C-98.08146667 464.76523193 -98.08146667 464.76523193 -96.64204407 463.91415405 C-95.62714905 463.30885864 -94.61225403 462.70356323 -93.56660461 462.07992554 C-91.38005048 460.7918602 -89.19252089 459.50544955 -87.00410461 458.22055054 C-85.31994446 457.23151733 -85.31994446 457.23151733 -83.60176086 456.22250366 C-69.45940756 447.96317131 -55.11454503 440.09839895 -40.56660461 432.57992554 C-39.95687805 432.26474976 -39.34715149 431.94957397 -38.71894836 431.62484741 C-32.47178756 428.40157828 -26.20454016 425.22552963 -19.87910461 422.15805054 C-6.18180903 415.58310835 -6.18180903 415.58310835 5.74589539 406.26742554 C6.34659851 405.71957397 6.94730164 405.17172241 7.56620789 404.60726929 C11.88311918 400.51297898 15.56574904 395.91794737 19.29277039 391.29086304 C21.90009637 388.07737528 24.56374022 384.91835209 27.24589539 381.76742554 C30.6190485 377.7986673 33.95766982 373.80724552 37.24589539 369.76742554 C40.99377337 365.16288973 44.81572983 360.62723362 48.65995789 356.10336304 C51.55834361 352.68683014 54.41744639 349.24237716 57.24589539 345.76742554 C62.78781637 338.96328767 68.47898462 332.28766676 74.16191101 325.60140991 C79.64860053 319.14335627 85.08366668 312.65244938 90.43339539 306.07992554 C93.46956904 302.3872819 96.56439509 298.74620765 99.65995789 295.10336304 C103.29857822 290.81426309 106.86357636 286.46912513 110.40995789 282.10336304 C112.13673294 280.00697726 113.87814614 277.93166253 115.64433289 275.86898804 C116.13868835 275.29084351 116.63304382 274.71269897 117.14237976 274.11703491 C118.10140376 272.99838472 119.0634682 271.88233121 120.02909851 270.76937866 C124.8989896 265.15296458 124.8989896 265.15296458 127.18339539 258.26742554 C126.628202 254.4603852 125.3306286 253.09108367 122.74589539 250.26742554 C111.18621352 241.96208226 98.51525096 238.12227377 84.37089539 239.89242554 C68.09201699 242.76855246 58.05274139 251.79480227 46.4172821 262.70492554 C43.81358485 265.13899834 41.18719788 267.54802941 38.55839539 269.95492554 C38.06242859 270.40956177 37.56646179 270.864198 37.0554657 271.33261108 C33.15880228 274.90026012 29.23187522 278.43336696 25.30058289 281.96273804 C20.41995507 286.3657509 15.58597497 290.81995063 10.74589539 295.26742554 C4.32259899 301.16969409 -2.11375959 307.05459653 -8.61347961 312.87289429 C-10.59846789 314.67289106 -12.56460508 316.48627099 -14.51972961 318.31820679 C-15.08699768 318.84809204 -15.65426575 319.37797729 -16.23872375 319.92391968 C-17.33754438 320.95216372 -18.43332197 321.98367395 -19.52534485 323.01913452 C-29.10966471 331.97665402 -29.10966471 331.97665402 -34.94160461 332.76742554 C-40.20439512 331.97304206 -40.20439512 331.97304206 -42.25410461 329.26742554 C-42.89201006 326.14409605 -42.87707279 323.39339087 -42.25410461 320.26742554 C-40.31660461 317.76742554 -40.31660461 317.76742554 -37.25410461 315.26742554 C-35.68115346 313.69447438 -34.11939219 312.11028505 -32.56660461 310.51742554 C-28.50206546 306.39140596 -28.50206546 306.39140596 -26.25410461 305.26742554 C-26.25410461 267.97742554 -26.25410461 230.68742554 -26.25410461 192.26742554 C-29.46495595 192.26742554 -32.46730675 193.35377927 -35.54267883 194.20761108 Z M-229.35566711 384.02133179 C-230.90991394 384.92154053 -230.90991394 384.92154053 -232.49555969 385.8399353 C-234.17041443 386.82498047 -234.17041443 386.82498047 -235.87910461 387.82992554 C-237.03740309 388.50718202 -238.19585241 389.18418058 -239.35444641 389.8609314 C-241.76847464 391.27321536 -244.17942577 392.69059011 -246.58857727 394.11117554 C-249.58957579 395.8796478 -252.59987772 397.63148343 -255.61360168 399.37815857 C-258.4372891 401.01849037 -261.25133626 402.67519887 -264.06660461 404.32992554 C-265.11477356 404.93586548 -266.1629425 405.54180542 -267.24287415 406.16610718 C-273.24228651 409.72637697 -278.05691478 412.87304586 -281.25410461 419.26742554 C-281.36666924 421.49241216 -281.41348885 423.72081535 -281.43110657 425.94857788 C-281.43767776 426.63494827 -281.44424896 427.32131866 -281.45101929 428.02848816 C-281.4707556 430.30344752 -281.48241481 432.5783409 -281.49238586 434.85336304 C-281.49646139 435.62984821 -281.50053692 436.40633339 -281.50473595 437.20634842 C-281.52559695 441.31524643 -281.53989917 445.42411102 -281.54927063 449.53305054 C-281.56034231 453.77919403 -281.59475029 458.0248145 -281.63444233 462.27077293 C-281.66057174 465.53414899 -281.6689591 468.79739965 -281.67255211 472.06087112 C-281.67742672 473.62619184 -281.68906565 475.19150663 -281.7075901 476.75672531 C-281.73190761 478.94740166 -281.73103116 481.13671449 -281.72407532 483.32748413 C-281.72994156 484.57387665 -281.7358078 485.82026917 -281.74185181 487.10443115 C-281.14824171 490.95393643 -280.26712151 491.87942554 -277.25410461 494.26742554 C-274.61603472 494.88701042 -274.61603472 494.88701042 -271.67297363 494.82919312 C-270.53641327 494.85203369 -269.39985291 494.87487427 -268.22885132 494.89840698 C-266.36419472 494.90511414 -266.36419472 494.90511414 -264.46186829 494.91195679 C-263.1491394 494.93181641 -261.83641052 494.95167603 -260.48390198 494.97213745 C-256.88201484 495.02457242 -253.28042581 495.05040523 -249.6782167 495.06818008 C-247.42201703 495.07992583 -245.16589764 495.09635011 -242.90973854 495.11419678 C-235.83453964 495.16890865 -228.75952565 495.20755708 -221.68412989 495.22300434 C-213.54766046 495.24086972 -205.41389859 495.31077119 -197.27825183 495.42700672 C-190.97220215 495.51393335 -184.66690704 495.55384598 -178.36026555 495.55916882 C-174.60232888 495.5633336 -170.8469352 495.58633454 -167.08963585 495.65844727 C-146.49456425 496.4264746 -146.49456425 496.4264746 -129.16723156 486.55729675 C-127.83232112 485.15580213 -126.53916594 483.71476463 -125.25410461 482.26742554 C-124.59410461 481.93742554 -123.93410461 481.60742554 -123.25410461 481.26742554 C-124.71073395 477.92154582 -126.54991036 475.71843398 -129.11895752 473.14187622 C-129.92513016 472.32861877 -130.7313028 471.51536133 -131.56190491 470.67745972 C-132.44767212 469.79416992 -133.33343933 468.91088013 -134.24604797 468.00082397 C-135.18768423 467.05483916 -136.12890206 466.10843769 -137.06973267 465.16165161 C-139.62281064 462.5951921 -142.18224828 460.0351661 -144.74329066 457.47665691 C-146.8799773 455.34103994 -149.01368018 453.20245415 -151.14743429 451.06390786 C-156.17893525 446.02131596 -161.21574149 440.98406663 -166.2558136 435.95004272 C-171.45984597 430.75205914 -176.65461451 425.54494669 -181.8449735 420.33331275 C-186.29992438 415.86077235 -190.76063235 411.39403211 -195.2260161 406.93190789 C-197.8938021 404.26593817 -200.55929458 401.59777135 -203.21923637 398.92397308 C-206.18202906 395.94632433 -209.15672363 392.98085442 -212.13276672 390.01644897 C-213.0165097 389.12506226 -213.90025269 388.23367554 -214.81077576 387.3152771 C-216.02426445 386.11230988 -216.02426445 386.11230988 -217.26226807 384.88504028 C-217.96484206 384.18229855 -218.66741606 383.47955681 -219.39128017 382.75551987 C-223.10137084 379.7917597 -225.7398871 381.91398511 -229.35566711 384.02133179 Z " fill="#000000" transform="translate(299.2541046142578,-0.267425537109375)"/>
<path d="M0 0 C5.82979152 4.73597834 8.75516065 10.39832887 9.75 17.8125 C10.11832352 25.55812702 8.06062708 32.68990804 3.27734375 38.83984375 C-2.41770947 44.56402768 -8.50186406 46.53626922 -16.4375 46.6875 C-25.00108 46.69669277 -29.82113739 44.79990165 -36.0625 39.0625 C-41.33327897 33.40751846 -43.22438017 26.98408803 -43.25 19.375 C-42.69182267 12.36138046 -40.00382708 6.5565743 -35.25 1.375 C-24.08521499 -7.14596392 -11.76901623 -7.97899405 0 0 Z M-23.25 15.375 C-24.79586876 18.46673752 -24.54359521 20.96929552 -24.25 24.375 C-22.83333333 26.95833333 -22.83333333 26.95833333 -20.25 28.375 C-16.22940837 28.94937023 -14.18631674 29.0649176 -10.875 26.625 C-8.76772552 23.76461935 -8.76772552 23.76461935 -8.25 20.375 C-9.47922992 17.14018442 -10.36322045 14.98466094 -13.25 13 C-17.54378734 11.65819146 -19.70305905 12.94814567 -23.25 15.375 Z " fill="#000000" transform="translate(409.25,81.625)"/>
</svg>
